<?xml version="1.0" standalone="no"?>
<!DOCTYPE svg PUBLIC "-//W3C//DTD SVG 20010904//EN"
 "http://www.w3.org/TR/2001/REC-SVG-20010904/DTD/svg10.dtd">
<svg version="1.0" xmlns="http://www.w3.org/2000/svg"
 width="500.000000pt" height="500.000000pt" viewBox="0 0 500.000000 500.000000"
 preserveAspectRatio="xMidYMid meet">
<metadata>
Created by potrace 1.14, written by Peter Selinger 2001-2017
</metadata>
<g transform="translate(0.000000,500.000000) scale(0.100000,-0.100000)"
fill="#000000" stroke="none">
<path d="M391 4731 c-10 -10 -24 -42 -30 -70 -12 -56 -14 -439 -2 -481 4 -15
21 -32 41 -42 32 -17 83 -18 621 -18 686 0 631 10 637 -109 7 -118 9 -116
-105 -119 -167 -5 -171 -13 -172 -345 l-1 -238 25 -25 26 -26 287 4 c316 5
342 9 415 69 50 42 95 138 108 236 7 50 9 240 7 514 -5 492 -7 505 -80 585
-32 34 -55 48 -105 64 -63 19 -93 20 -859 20 -766 0 -795 -1 -813 -19z"/>
<path d="M2796 4741 c-4 -5 -9 -29 -12 -53 -5 -39 10 -88 131 -429 173 -484
170 -478 211 -495 40 -17 457 -20 498 -4 16 6 34 27 47 52 l20 43 -74 215
c-41 118 -107 308 -147 423 -40 114 -81 219 -92 232 l-19 25 -279 0 c-158 0
-281 -4 -284 -9z"/>
<path d="M4117 4738 c-44 -34 -47 -73 -47 -593 0 -289 -4 -514 -10 -545 -12
-61 -28 -83 -85 -114 -39 -20 -54 -21 -511 -26 -433 -5 -474 -6 -491 -23 -36
-32 -43 -84 -43 -324 0 -219 1 -232 21 -257 l21 -27 582 3 c561 4 584 4 659
26 227 63 351 193 419 437 22 78 22 94 26 742 l3 663 -25 25 -25 25 -239 0
c-175 0 -243 -3 -255 -12z"/>
<path d="M852 4053 c-8 -3 -22 -25 -33 -50 -16 -37 -19 -69 -19 -186 0 -162
-13 -263 -38 -290 -40 -44 -92 -60 -218 -66 -185 -10 -184 -7 -184 -345 0
-307 -13 -286 182 -286 389 0 593 125 687 420 32 101 41 213 41 498 l0 263
-25 24 c-24 25 -26 25 -202 24 -98 0 -184 -3 -191 -6z"/>
<path d="M3113 2285 c-43 -30 -53 -92 -53 -321 l0 -211 -31 -7 c-17 -3 -68 -6
-113 -6 -50 0 -89 -5 -99 -12 -37 -29 -47 -91 -47 -308 0 -195 1 -209 21 -234
l20 -26 272 0 c150 0 277 4 283 8 6 4 20 25 32 47 18 35 21 61 25 216 3 157 6
180 25 210 54 88 135 130 260 137 163 9 281 -51 331 -168 25 -58 41 -210 22
-210 -6 0 -11 12 -11 28 0 25 -11 32 -191 115 -119 54 -201 87 -217 85 -42 -5
-50 -49 -51 -269 -1 -142 2 -200 12 -212 6 -9 65 -42 131 -73 83 -39 115 -59
108 -66 -6 -6 -23 -10 -39 -10 -15 1 -39 2 -53 1 -810 -11 -920 -14 -936 -31
-37 -37 -44 -85 -44 -324 0 -220 1 -233 21 -258 l21 -27 662 3 c645 4 663 4
739 26 227 63 351 193 419 437 22 78 22 94 26 752 l3 673 -25 25 -25 25 -738
0 c-638 0 -741 -2 -760 -15z"/>
<path d="M422 2273 c-36 -32 -42 -77 -42 -324 0 -258 0 -258 57 -280 13 -5
208 -9 433 -9 l409 0 21 -27 c20 -25 22 -36 17 -103 -12 -152 -74 -274 -184
-364 -114 -91 -178 -106 -488 -113 -182 -4 -245 -8 -262 -19 -45 -28 -54 -97
-51 -379 l3 -257 25 -20 c23 -19 36 -19 305 -15 255 3 286 6 354 26 179 55
314 126 402 213 l54 53 80 -57 c100 -71 232 -138 355 -178 126 -41 184 -48
210 -25 20 18 220 511 220 543 0 40 -29 60 -133 92 -107 33 -224 90 -287 140
-21 16 -40 26 -44 23 -3 -4 7 22 23 58 16 35 39 105 52 154 23 85 24 107 24
390 l0 300 -28 58 c-19 38 -42 66 -67 83 -81 54 -81 54 -785 54 -607 0 -654
-1 -673 -17z"/>
</g>
</svg>
